<svg width="21" height="20" viewBox="0 0 21 20" fill="none" xmlns="http://www.w3.org/2000/svg">
<path d="M20.227 10.2102C20.227 9.44107 19.6035 8.81756 18.8343 8.81756H11.871V1.85427C11.871 1.08512 11.2475 0.461609 10.4784 0.461609C9.70923 0.461609 9.08572 1.08512 9.08572 1.85427V8.81756H2.12242C1.35328 8.81756 0.729767 9.44107 0.729767 10.2102C0.729767 10.9794 1.35328 11.6029 2.12243 11.6029H9.08572V18.5662C9.08572 19.3353 9.70923 19.9588 10.4784 19.9588C11.2475 19.9588 11.871 19.3353 11.871 18.5662V11.6029H18.8343C19.6035 11.6029 20.227 10.9794 20.227 10.2102Z" fill="white" style="fill:white;fill-opacity:1;"/>
</svg>
